<svg xmlns="http://www.w3.org/2000/svg" viewBox="0 0 332.7 154.4"><defs><style>.cls-1{fill:#fff;}.cls-2{fill:#a0cce8;}.cls-3{fill:#cfc7b5;}.cls-4{fill:#c1213b;}.cls-5{fill:#544b4f;}</style></defs><title>logo-white-donatedesk</title><g id="Layer_1" data-name="Layer 1"><path class="cls-1" d="M87.4,79.35h2.5l8,11.8a25.6,25.6,0,0,1,1.5,2.6h.1s-.2-1.6-.2-2.6V79.35h2.5v18.1H99.4l-8-11.8a25.6,25.6,0,0,1-1.5-2.6h-.1s.2,1.6.2,2.6v11.8H87.5l-.1-18.1Zm17.4,0h10.4v2.2h-7.9v5.7h6.4v2.2h-6.4v5.8h8.3v2.2H104.8Zm24.3,0,3.5,13.3c.2,1,.4,1.9.4,1.9h.1a18.8,18.8,0,0,1,.3-1.9l3.3-13.3h2.6l-4.7,18.1h-2.9l-3.1-11.8c-.3-1.2-.5-2.6-.5-2.6H128s-.2,1.4-.5,2.6l-3.1,11.8h-2.9l-4.6-18.1h2.6l3.2,13.3c.2,1,.3,1.9.3,1.9h.1a12.06,12.06,0,0,1,.4-1.9l3.5-13.3Zm29.1,0,3.5,13.3c.2,1,.4,1.9.4,1.9h.1a18.8,18.8,0,0,1,.3-1.9l3.3-13.3h2.6l-4.7,18.1h-2.9l-3.1-11.8c-.3-1.2-.5-2.6-.5-2.6h-.1s-.2,1.4-.5,2.6l-3.1,11.8h-2.9L146,79.35h2.6l3.2,13.3c.2,1,.3,1.9.3,1.9h.1a12.06,12.06,0,0,1,.4-1.9l3.5-13.3Zm12.2,0h10.4v2.2h-7.9v5.7h6.4v2.2h-6.4v5.8h8.3v2.2H170.4ZM184,93.55a7,7,0,0,0,4.6,2c1.7,0,3.1-1,3.1-2.7,0-3.9-8.6-3.1-8.6-8.7,0-2.8,2.4-5.1,5.8-5.1a7.52,7.52,0,0,1,5.1,1.8L192.9,83a6,6,0,0,0-3.9-1.6c-1.9,0-3.2,1.2-3.2,2.6,0,3.8,8.6,2.8,8.6,8.6,0,2.8-2.1,5.1-5.7,5.1a8.2,8.2,0,0,1-5.9-2.4l1.2-1.7Zm17.1-11.9H195v-2.2h14.7v2.2h-6.1v15.9h-2.5V81.65Zm10.9-2.3h2.6l4.1,9.8c.4,1,.9,2.4.9,2.4h.1s.5-1.4.9-2.4l4.1-9.8h2.6l1.4,18.1h-2.5l-.9-11.3a22.05,22.05,0,0,1,0-2.7h-.1a20.85,20.85,0,0,1-1,2.7l-3.6,8.2h-2.2l-3.4-8.2c-.4-1-1-2.7-1-2.7h0s0,1.6-.1,2.7l-.9,11.4h-2.5Zm20,0h2.5v18.1H232Zm6.2,0h2.5l7.9,11.8a25.6,25.6,0,0,1,1.5,2.6h.1s-.2-1.6-.2-2.6V79.35h2.5v18.1h-2.4l-8-11.8a25.6,25.6,0,0,1-1.5-2.6h-.1s.2,1.6.2,2.6v11.8h-2.5V79.35Zm18.2,14.2a6.91,6.91,0,0,0,4.5,2c1.7,0,3.1-1,3.1-2.7,0-3.9-8.6-3.1-8.6-8.7,0-2.8,2.4-5.1,5.8-5.1a7.11,7.11,0,0,1,5,1.8L265.1,83a6,6,0,0,0-3.9-1.6c-1.9,0-3.2,1.2-3.2,2.6,0,3.8,8.6,2.8,8.6,8.6,0,2.8-2.1,5.1-5.7,5.1a8.2,8.2,0,0,1-5.9-2.4l1.4-1.7Zm17.1-11.9h-6.1v-2.2h14.7v2.2H276v15.9h-2.5V81.65Zm10.3-2.3h10.4v2.2h-7.9v5.7h6.4v2.2h-6.4v5.8h8.3v2.2H283.8Zm13,0h5.5a7.86,7.86,0,0,1,3.3.4,5.42,5.42,0,0,1-.2,9.8h0a3.37,3.37,0,0,1,.5.8l3.8,7h-2.8l-3.8-7.2h-3.8v7.2h-2.5v-18Zm6.1,8.8a3.37,3.37,0,0,0,1.8-6.1,4.66,4.66,0,0,0-2.5-.4h-2.9v6.5Z" transform="translate(0 -5.05)"/><path class="cls-1" d="M94.9,127.55a9.1,9.1,0,0,1,6.5,2.4l-1.2,1.9a8.17,8.17,0,0,0-5.2-2c-4,0-6.6,3.1-6.6,6.9S91.1,144,95,144a7.83,7.83,0,0,0,5.5-2.4l1.3,1.8a9.32,9.32,0,0,1-6.9,2.9c-5.4,0-9.1-4.2-9.1-9.5A9,9,0,0,1,94.9,127.55Zm9.3.4h2.5v8h9.2v-8h2.5v18.2H116v-8h-9.2v8h-2.5V128Zm17.8,0h2.5v11.7c0,2.8,1.8,4.4,4.5,4.4s4.6-1.6,4.6-4.4V128h2.5v11.7c0,4-2.9,6.7-7,6.7s-7-2.7-7-6.7L122,128Zm17.6,0h5.5a10.07,10.07,0,0,1,3.3.4,5.42,5.42,0,0,1-.2,9.8h0a3.37,3.37,0,0,1,.5.8l3.8,7.1h-2.8l-3.8-7.2h-3.8v7.2h-2.5V128Zm6.1,8.7a3.07,3.07,0,0,0,3.2-3.3,3,3,0,0,0-1.4-2.8,4.47,4.47,0,0,0-2.4-.4h-2.9v6.5Zm16.8-9.1A9.1,9.1,0,0,1,169,130l-1.2,1.9a8.17,8.17,0,0,0-5.2-2c-4,0-6.6,3.1-6.6,6.9s2.6,7.2,6.6,7.2a7.83,7.83,0,0,0,5.5-2.4l1.3,1.8a9.32,9.32,0,0,1-6.9,2.9c-5.4,0-9.1-4.2-9.1-9.5a9,9,0,0,1,9.1-9.2Zm9.4.4h2.5v8h9.2v-8h2.5v18.2h-2.5v-8h-9.2v8h-2.5Z" transform="translate(0 -5.05)"/><path class="cls-1" d="M94.9,103.75A8.46,8.46,0,0,1,101,106l-.6.8a8.06,8.06,0,0,0-5.4-2c-4.2,0-7.4,3.4-7.4,7.9s3.2,8.1,7.5,8.1a8.1,8.1,0,0,0,5.8-2.4l.7.8a9,9,0,0,1-6.4,2.6c-5,0-8.6-4.1-8.6-9.1A8.25,8.25,0,0,1,94.9,103.75Zm9.8.3h1.1v8.1h10.8V104h1.1v17.4h-1.1v-8.2H105.8v8.2h-1.1Zm17.6,0h5a7.27,7.27,0,0,1,3.1.5,4.53,4.53,0,0,1,2.4,4.2,4.65,4.65,0,0,1-3.4,4.8h0a2.48,2.48,0,0,1,.4.6l3.8,7.2h-1.2l-4.1-7.7h-4.9v7.7h-1.1v-17.3Zm5.7,8.7c2.2,0,3.7-1.6,3.7-4a3.76,3.76,0,0,0-2-3.4,5.9,5.9,0,0,0-2.4-.3h-3.9v7.7Zm9.4-8.7h1.1v17.4h-1.1Zm5.1,14.7a6.53,6.53,0,0,0,4.6,1.9c2.1,0,3.8-1.3,3.8-3.4,0-5-8.8-3.6-8.8-9,0-2.3,2-4.5,5.1-4.5a6.53,6.53,0,0,1,4.4,1.6l-.6.9a5.69,5.69,0,0,0-3.7-1.5c-2.5,0-4.1,1.7-4.1,3.4,0,4.6,8.8,3.2,8.8,9,0,2.5-1.9,4.5-5,4.5a7,7,0,0,1-5.2-2.2l.7-.7Zm17.3-13.7h-6.4v-1h13.8v1h-6.4v16.4h-1.1l.1-16.4Zm9.9-1h1.1v17.4h-1.1Zm14.2,11.3h-7.3l-2.2,6h-1.1l6.4-17.4h1.1l6.4,17.4h-1.1C186.1,121.45,183.9,115.45,183.9,115.35Zm-3.6-10.1s-.4,1.3-.6,2.1l-2.6,7.1h6.5l-2.6-7.1c-.3-.7-.7-2.1-.7-2.1Zm9.4-1.2h1l9.8,13.6c.6.8,1.4,2.2,1.4,2.2h.1s-.1-1.3-.1-2.2v-13.6H203v17.4h-1l-9.8-13.7c-.6-.8-1.4-2.2-1.4-2.2h-.1s.1,1.3.1,2.2v13.7h-1.1Zm24.9,0h5a7.27,7.27,0,0,1,3.1.5,4.53,4.53,0,0,1,2.4,4.2,4.65,4.65,0,0,1-3.4,4.8h0a2.48,2.48,0,0,1,.4.6l3.8,7.2h-1.2l-4.1-7.7h-4.9v7.7h-1.1v-17.3Zm5.7,8.7c2.2,0,3.7-1.6,3.7-4a3.76,3.76,0,0,0-2-3.4,5.9,5.9,0,0,0-2.4-.3h-3.9v7.7Zm8.4-8.7h9.4v1h-8.3v7.1h6.8v1h-6.8v7.3h8.8v1h-9.8l-.1-17.4Zm12.8,0h8.6v1h-7.6v7.3h6.6v1h-6.6v8.1h-1.1v-17.4Zm18.7-.3a8.67,8.67,0,0,1,8.6,8.9,8.61,8.61,0,1,1-17.2,0A8.73,8.73,0,0,1,260.2,103.75Zm0,16.9c4.2,0,7.5-3.5,7.5-8.1a7.65,7.65,0,0,0-7.5-7.9,7.73,7.73,0,0,0-7.6,7.9C252.7,117.15,256,120.65,260.2,120.65Zm11.6-16.6h5a7.27,7.27,0,0,1,3.1.5,4.53,4.53,0,0,1,2.4,4.2,4.65,4.65,0,0,1-3.4,4.8h0a2.48,2.48,0,0,1,.4.6l3.8,7.2h-1.2l-4.1-7.7h-4.9v7.7h-1C271.8,121.45,271.8,104.05,271.8,104.05Zm5.7,8.7c2.2,0,3.7-1.6,3.7-4a3.76,3.76,0,0,0-2-3.4,5.9,5.9,0,0,0-2.4-.3h-3.9v7.7Zm9.7-8.7h1l5,10.9a18.83,18.83,0,0,1,.8,2h0s.4-1.1.8-2l5-10.9h1l1.4,17.4h-1l-1-13.3c-.1-.8-.1-2.3-.1-2.3h0a23.29,23.29,0,0,1-.9,2.3l-4.6,9.9h-1.1l-4.5-9.9a21.82,21.82,0,0,1-.9-2.4h0s0,1.5-.1,2.4l-1,13.3h-1C285.9,121.45,287.2,104.05,287.2,104.05Zm18.8,0h9.4v1h-8.3v7.1h6.8v1h-6.8v7.3h8.8v1H306v-17.4Zm12.8,0h5.4c5.1,0,8.5,3.2,8.5,8.7s-3.5,8.7-8.5,8.7h-5.4Zm5.3,16.4c4.5,0,7.6-2.7,7.6-7.7s-3-7.7-7.6-7.7H320v15.4Z" transform="translate(0 -5.05)"/><path class="cls-2" d="M30.3,99.45l36.6-.1c-.9-5.9-6-25.4-32.4-28.2Z" transform="translate(0 -5.05)"/><path class="cls-3" d="M21.4,159.45l38.3-10.9,8.7-45.5-38.6.1Z" transform="translate(0 -5.05)"/><path class="cls-4" d="M2.9,103.15c-.3,3.1-2.4,28.5,15.9,48.4l7.2-48.4Z" transform="translate(0 -5.05)"/><path class="cls-5" d="M31.4,66.15,7,73.35,0,99.45H26.5Z" transform="translate(0 -5.05)"/></g><g id="Layer_3" data-name="Layer 3"><path class="cls-1" d="M17.72,46.12V42.81l4.3-.74V11.87l-4.3-.73V7.79h15a16.09,16.09,0,0,1,8.86,2.42,16.37,16.37,0,0,1,5.88,6.67,21.37,21.37,0,0,1,2.11,9.68v.82a22,22,0,0,1-2,9.57,16.25,16.25,0,0,1-5.75,6.71A15.61,15.61,0,0,1,33,46.12Zm9.48-4h5.53a10,10,0,0,0,6.24-2,12.66,12.66,0,0,0,4-5.32,18.74,18.74,0,0,0,1.41-7.38v-.87A18.91,18.91,0,0,0,43,19a12.32,12.32,0,0,0-4-5.23,10.24,10.24,0,0,0-6.24-1.92H27.2Z" transform="translate(0 -5.05)"/><path class="cls-1" d="M66.11,46.68a11.81,11.81,0,0,1-11.21-7,17.24,17.24,0,0,1-1.56-7.49v-.58a17.21,17.21,0,0,1,1.56-7.49A12.21,12.21,0,0,1,59.31,19a13.21,13.21,0,0,1,13.55,0,12.28,12.28,0,0,1,4.41,5.13,17.23,17.23,0,0,1,1.56,7.51v.58a17.26,17.26,0,0,1-1.56,7.51,12,12,0,0,1-4.39,5.12A12.17,12.17,0,0,1,66.11,46.68Zm0-4.06a6.41,6.41,0,0,0,4.15-1.35,8.33,8.33,0,0,0,2.53-3.72,15.6,15.6,0,0,0,.85-5.35v-.58a15.66,15.66,0,0,0-.85-5.36,8.24,8.24,0,0,0-2.54-3.71,6.45,6.45,0,0,0-4.19-1.36,6.39,6.39,0,0,0-4.16,1.36,8.15,8.15,0,0,0-2.53,3.71,15.91,15.91,0,0,0-.84,5.36v.58a15.85,15.85,0,0,0,.84,5.35,8.12,8.12,0,0,0,2.54,3.72A6.55,6.55,0,0,0,66.11,42.62Z" transform="translate(0 -5.05)"/><path class="cls-1" d="M82.83,46.12V42.81l4.29-.74V21.72L82.83,21V17.64h8.92l.37,4.24a10.44,10.44,0,0,1,3.57-3.52,9.55,9.55,0,0,1,4.88-1.25,9.32,9.32,0,0,1,7.14,2.7q2.52,2.7,2.52,8.33V42.07l4.3.74v3.31H100.76V42.81l4.29-.74V28.25q0-3.77-1.49-5.35A6,6,0,0,0,99,21.32a7.31,7.31,0,0,0-4,1.08,7.89,7.89,0,0,0-2.75,3V42.07l4.29.74v3.31Z" transform="translate(0 -5.05)"/><path class="cls-1" d="M127.4,46.68c-3,0-5.22-.73-6.77-2.18a8,8,0,0,1-2.31-6.12,7.74,7.74,0,0,1,1.48-4.72,9.6,9.6,0,0,1,4.31-3.13,18.15,18.15,0,0,1,6.74-1.12h5.08V26.62a5.13,5.13,0,0,0-1.57-4A6.35,6.35,0,0,0,130,21.19a9.86,9.86,0,0,0-3.1.44,9.27,9.27,0,0,0-2.4,1.19l-.55,4h-4V20.27a13.44,13.44,0,0,1,4.47-2.35,18.65,18.65,0,0,1,5.66-.81q5.19,0,8.14,2.48a8.74,8.74,0,0,1,3,7.08V40.38c0,.37,0,.73,0,1.08s0,.71.06,1.06l2.77.29v3.31h-7.45c-.16-.77-.28-1.46-.37-2.08S136,42.82,136,42.2a12.59,12.59,0,0,1-3.76,3.2A9.59,9.59,0,0,1,127.4,46.68Zm.76-4.35a9.31,9.31,0,0,0,4.72-1.23,7.75,7.75,0,0,0,3.05-3V33h-5.27a7.53,7.53,0,0,0-5.37,1.71,5.19,5.19,0,0,0-1.79,3.82,3.56,3.56,0,0,0,1.16,2.86A5.33,5.33,0,0,0,128.16,42.33Z" transform="translate(0 -5.05)"/><path class="cls-1" d="M158,46.57a6.77,6.77,0,0,1-5-1.86q-1.86-1.85-1.86-5.93V21.48h-4.5V17.64h4.5V10.77h5.19v6.87h6.19v3.84h-6.19v17.3a4.69,4.69,0,0,0,.81,3,2.72,2.72,0,0,0,2.19,1,14.36,14.36,0,0,0,2-.17c.76-.11,1.35-.22,1.77-.3l.71,3.39a22,22,0,0,1-2.78.61A20.19,20.19,0,0,1,158,46.57Z" transform="translate(0 -5.05)"/><path class="cls-1" d="M179.66,46.68a12.71,12.71,0,0,1-6.87-1.81,12,12,0,0,1-4.52-5,16.55,16.55,0,0,1-1.59-7.43V31.28A15.48,15.48,0,0,1,168.35,24,13.5,13.5,0,0,1,172.8,19a10.67,10.67,0,0,1,6.07-1.86,12.25,12.25,0,0,1,6.44,1.58,9.88,9.88,0,0,1,3.9,4.44,15.86,15.86,0,0,1,1.32,6.72v3.24H172.05l-.08.13a12.67,12.67,0,0,0,1,4.86,7.74,7.74,0,0,0,2.62,3.33,6.91,6.91,0,0,0,4.11,1.21,13.09,13.09,0,0,0,4.62-.75,10.71,10.71,0,0,0,3.43-2.06l2,3.36a12.2,12.2,0,0,1-4,2.49A16.07,16.07,0,0,1,179.66,46.68ZM172.21,29h13.13v-.69a8.94,8.94,0,0,0-.72-3.67,5.73,5.73,0,0,0-2.16-2.55,6.39,6.39,0,0,0-3.59-.94,5.3,5.3,0,0,0-3.16,1A7.64,7.64,0,0,0,173.37,25a11.57,11.57,0,0,0-1.22,3.95Z" transform="translate(0 -5.05)"/><path class="cls-1" d="M194.74,46.12V42.81l4.29-.74V11.87l-4.29-.73V7.79h15a16.09,16.09,0,0,1,8.86,2.42,16.37,16.37,0,0,1,5.88,6.67,21.5,21.5,0,0,1,2.11,9.68v.82a22,22,0,0,1-2,9.57,16.25,16.25,0,0,1-5.75,6.71A15.63,15.63,0,0,1,210,46.12Zm9.48-4h5.53a10,10,0,0,0,6.24-2,12.74,12.74,0,0,0,4-5.32,18.74,18.74,0,0,0,1.41-7.38v-.87A18.91,18.91,0,0,0,220,19a12.4,12.4,0,0,0-4-5.23,10.24,10.24,0,0,0-6.24-1.92h-5.53Z" transform="translate(0 -5.05)"/><path class="cls-1" d="M243.23,46.68a12.76,12.76,0,0,1-6.87-1.81,12,12,0,0,1-4.51-5,16.55,16.55,0,0,1-1.59-7.43V31.28A15.36,15.36,0,0,1,231.93,24,13.33,13.33,0,0,1,236.38,19a10.67,10.67,0,0,1,6.07-1.86,12.18,12.18,0,0,1,6.43,1.58,9.9,9.9,0,0,1,3.91,4.44,15.86,15.86,0,0,1,1.32,6.72v3.24H235.63l-.08.13a12.67,12.67,0,0,0,1,4.86,7.67,7.67,0,0,0,2.62,3.33,6.9,6.9,0,0,0,4.1,1.21,13,13,0,0,0,4.62-.75,10.65,10.65,0,0,0,3.44-2.06l2,3.36a12.31,12.31,0,0,1-4,2.49A16.09,16.09,0,0,1,243.23,46.68ZM235.78,29h13.14v-.69a8.94,8.94,0,0,0-.72-3.67A5.8,5.8,0,0,0,246,22.13a6.42,6.42,0,0,0-3.59-.94,5.28,5.28,0,0,0-3.16,1A7.76,7.76,0,0,0,236.94,25a11.79,11.79,0,0,0-1.21,3.95Z" transform="translate(0 -5.05)"/><path class="cls-1" d="M269.8,46.68a24.15,24.15,0,0,1-5.37-.58,32.65,32.65,0,0,1-5.32-1.79l-.05-6.77H263l1,4.08a15,15,0,0,0,2.86.88,14.82,14.82,0,0,0,3,.28c2.1,0,3.61-.4,4.53-1.21a3.86,3.86,0,0,0,1.37-3,3.62,3.62,0,0,0-1.39-2.86,12.36,12.36,0,0,0-5-2c-3.44-.79-6-1.84-7.6-3.17a6.49,6.49,0,0,1-2.43-5.3,6.86,6.86,0,0,1,1.34-4.15,9.22,9.22,0,0,1,3.74-2.91,13.48,13.48,0,0,1,5.58-1.08,18.3,18.3,0,0,1,5.54.74,14.21,14.21,0,0,1,4,2l.26,6.51h-3.9L275,22.54a6.81,6.81,0,0,0-2.18-1.06,10.63,10.63,0,0,0-2.9-.37A6.39,6.39,0,0,0,266,22.25a3.5,3.5,0,0,0-1.07,4.58,3.69,3.69,0,0,0,1.67,1.33,19.88,19.88,0,0,0,3.63,1.17q6,1.4,8.31,3.55a6.93,6.93,0,0,1,2.35,5.32,7.84,7.84,0,0,1-2.67,6C276.43,45.86,273.62,46.68,269.8,46.68Z" transform="translate(0 -5.05)"/><path class="cls-1" d="M284.91,46.12V42.81l4.29-.74V9.14l-4.29-.74V5.05h9.48v37l4.29.74v3.31ZM294,37.88,292.1,33.8l12.37-12.32.13-.16L301.55,21V17.64h12.27V21l-3.66.69Zm9.19,8.24V42.81l2.89-.35-.08-.1-8.24-10.64,2.69-4.13L312,42.17l4.11.64v3.31Z" transform="translate(0 -5.05)"/></g></svg>